<?xml version="1.0" encoding="iso-8859-1"?>
<!-- Generator: Adobe Illustrator 19.0.0, SVG Export Plug-In . SVG Version: 6.00 Build 0)  -->
<svg version="1.1" id="Capa_1" xmlns="http://www.w3.org/2000/svg" xmlns:xlink="http://www.w3.org/1999/xlink" x="0px" y="0px"
	 viewBox="0 0 512.002 512.002" style="enable-background:new 0 0 512.002 512.002;" xml:space="preserve">
<g>
	<g>
		<path d="M206.417,197.028c-14.123-14.123-20.868-34.358-18.043-54.13l0.699-4.894c2.068-14.482,0.296-29.319-5.126-42.906
			l-12.986-32.542c4.404,3.774,10.545,4.783,15.968,2.535c5.802-2.402,9.55-8.012,9.55-14.29V30.153
			C196.48,13.526,182.953,0,166.326,0H94.633C78.006,0,64.48,13.526,64.48,30.153v20.648c0,6.278,3.748,11.887,9.548,14.29
			c3.933,1.629,8.235,1.544,11.983-0.057L74.013,95.098c-5.422,13.588-7.194,28.425-5.125,42.907l0.699,4.893
			c2.824,19.772-3.921,40.007-18.044,54.129c-15.826,15.827-24.542,36.869-24.542,59.251v214.056
			c0,22.975,18.691,41.666,41.667,41.666h120.625c22.975,0,41.666-18.691,41.666-41.667V256.278
			C230.959,233.896,222.243,212.854,206.417,197.028z M84.479,42.48V30.153h0.001C84.48,24.555,89.034,20,94.633,20h71.693
			c5.599,0,10.153,4.555,10.153,10.153V42.48c-8.367-3.356-18.307-1.651-25.071,5.115c-0.815,0.815-1.767,0.937-2.262,0.937
			s-1.447-0.122-2.263-0.938c-4.523-4.523-10.463-6.784-16.404-6.784c-5.94,0-11.882,2.262-16.403,6.784
			c-0.816,0.815-1.769,0.938-2.264,0.938s-1.446-0.122-2.262-0.938C102.783,40.829,92.846,39.123,84.479,42.48z M55.184,225.001
			h44.895c5.522,0,10-4.477,10-10s-4.478-10-10-10H71.252c14.715-18.019,21.45-41.716,18.134-64.932l-0.699-4.894
			c-1.575-11.025-0.226-22.32,3.902-32.665l13.82-34.634c1.752,0.417,3.557,0.656,5.403,0.656c6.196,0,12.022-2.413,16.405-6.795
			c1.246-1.248,3.276-1.247,4.524,0c4.382,4.382,10.208,6.795,16.404,6.795c0.877,0,1.744-0.061,2.604-0.156l13.621,34.135
			c4.128,10.344,5.478,21.64,3.903,32.665l-0.699,4.894c-3.711,25.97,5.149,52.55,23.699,71.101
			c9.589,9.589,15.735,21.698,17.851,34.83H47.834C49.029,238.582,51.518,231.496,55.184,225.001z M210.959,470.333
			c0,11.947-9.72,21.667-21.666,21.667H68.668c-11.947,0-21.667-9.72-21.667-21.667V458h163.958V470.333z M210.959,438H47.001V266
			h163.958V438z"/>
	</g>
</g>
<g>
	<g>
		<path d="M128.98,298c-29.775,0-54,24.224-54,54s24.225,54,54,54s54-24.224,54-54S158.756,298,128.98,298z M128.98,386
			c-18.748,0-34-15.252-34-34s15.252-34,34-34s34,15.252,34,34S147.729,386,128.98,386z"/>
	</g>
</g>
<g>
	<g>
		<path d="M460.459,197.027c-14.123-14.122-20.868-34.357-18.044-54.129l0.699-4.894c2.069-14.481,0.297-29.318-5.125-42.907
			l-12.985-32.541c4.405,3.773,10.542,4.78,15.969,2.533c5.801-2.402,9.549-8.012,9.549-14.29V30.153
			C450.522,13.526,436.995,0,420.368,0h-71.694c-16.626,0-30.152,13.526-30.152,30.153v20.648c0,6.278,3.748,11.887,9.548,14.29
			c3.933,1.629,8.235,1.544,11.983-0.058l-11.998,30.066c-5.422,13.587-7.194,28.424-5.126,42.907l0.699,4.894
			c2.825,19.771-3.92,40.006-18.043,54.129c-15.826,15.827-24.542,36.869-24.542,59.25v214.056
			c0,22.975,18.691,41.667,41.666,41.667h120.625c22.976-0.002,41.667-18.693,41.667-41.669V256.278
			C485.001,233.896,476.285,212.854,460.459,197.027z M338.521,42.481V30.153h0.001c0-5.598,4.555-10.153,10.152-10.153h71.694
			c5.599,0,10.153,4.555,10.153,10.153V42.48c-8.366-3.355-18.306-1.65-25.07,5.115c-0.816,0.815-1.769,0.938-2.264,0.938
			s-1.446-0.122-2.262-0.938c-4.522-4.522-10.463-6.783-16.404-6.783c-5.94,0-11.882,2.261-16.405,6.784
			c-0.815,0.815-1.767,0.937-2.262,0.937s-1.446-0.122-2.263-0.938C356.825,40.83,346.884,39.123,338.521,42.481z M465.001,470.333
			c0,11.947-9.72,21.667-21.667,21.667H322.709c-11.946,0-21.666-9.72-21.666-21.667V458h163.958V470.333z M465.001,438H301.043V266
			h87.958c5.522,0,10-4.477,10-10s-4.478-10-10-10h-87.125c2.116-13.132,8.262-25.241,17.852-34.83
			c18.55-18.551,27.41-45.13,23.699-71.101l-0.699-4.893c-1.574-11.025-0.225-22.321,3.903-32.666l13.82-34.634
			c1.752,0.417,3.557,0.656,5.403,0.656c6.197,0,12.022-2.414,16.403-6.794c1.248-1.248,3.279-1.248,4.525-0.001
			c4.382,4.382,10.207,6.795,16.404,6.795c0.877,0,1.745-0.061,2.604-0.157l13.621,34.135c4.128,10.345,5.478,21.64,3.902,32.665
			l-0.699,4.894c-3.71,25.971,5.15,52.55,23.7,71.1c12.051,12.049,18.687,28.069,18.687,45.109V438z"/>
	</g>
</g>
<g>
	<g>
		<path d="M439.4,248.93c-1.859-1.86-4.439-2.93-7.069-2.93s-5.2,1.07-7.07,2.93c-1.86,1.86-2.93,4.44-2.93,7.07
			c0,2.64,1.069,5.21,2.93,7.07c1.861,1.86,4.44,2.93,7.07,2.93c2.64,0,5.21-1.07,7.069-2.93c1.86-1.86,2.931-4.44,2.931-7.07
			S441.261,250.79,439.4,248.93z"/>
	</g>
</g>
<g>
	<g>
		<path d="M383.022,298c-29.775,0-54,24.224-54,54s24.225,54,54,54c29.775,0,54-24.224,54-54S412.797,298,383.022,298z M383.022,386
			c-18.748,0-34-15.252-34-34s15.252-34,34-34s34,15.252,34,34S401.77,386,383.022,386z"/>
	</g>
</g>
<g>
	<g>
		<path d="M142.298,205h-0.188c-5.522,0-10,4.477-10,10s4.478,10,10,10h0.188c5.522,0,10-4.477,10-10S147.82,205,142.298,205z"/>
	</g>
</g>
<g>
</g>
<g>
</g>
<g>
</g>
<g>
</g>
<g>
</g>
<g>
</g>
<g>
</g>
<g>
</g>
<g>
</g>
<g>
</g>
<g>
</g>
<g>
</g>
<g>
</g>
<g>
</g>
<g>
</g>
</svg>
