<svg height="512pt" viewBox="-26 0 512 512" width="512pt" xmlns="http://www.w3.org/2000/svg"><path d="m390 329c-5.519531 0-10 4.480469-10 10s4.480469 10 10 10 10-4.480469 10-10-4.480469-10-10-10zm0 0"/><path d="m.941406 235.09375c-.652344 7.136719-.941406 17.148438-.941406 23.90625 0 90.816406 52.753906 172.726562 130 210.171875v32.828125c0 5.523438 4.476562 10 10 10h180c5.523438 0 10-4.476562 10-10v-32.828125c77.421875-37.53125 130-119.554687 130-210.171875 0-6.757812-.289062-16.769531-.941406-23.90625-.46875-5.152344-4.789063-9.09375-9.957032-9.09375h-438.203124c-5.167969 0-9.488282 3.941406-9.957032 9.09375zm149.058594 256.90625v-20h160v20zm169.5625-40h-179.125c-62.828125-29.734375-108.273438-92.714844-118.308594-163.011719h415.742188c-10.03125 70.289063-55.476563 133.277344-118.308594 163.011719zm-299.273438-206h419.421876c.195312 4.640625.289062 9.410156.289062 13 0 3.335938-.082031 6.679688-.238281 10h-419.523438c-.15625-3.320312-.238281-6.664062-.238281-10 0-3.589844.09375-8.359375.289062-13zm0 0"/><path d="m375.453125 365.371094c-4.273437-3.5-10.574219-2.867188-14.070313 1.40625-17.621093 21.53125-35.59375 37.121094-53.417968 46.339844-4.902344 2.535156-6.824219 8.570312-4.289063 13.476562 2.542969 4.914062 8.582031 6.820312 13.476563 4.289062 20.261718-10.480468 40.347656-27.785156 59.707031-51.441406 3.496094-4.273437 2.867187-10.574218-1.40625-14.070312zm0 0"/><path d="m265 100h-130c-19.300781 0-35 15.699219-35 35 0 19.347656 15.644531 35 35 35h175c5.515625 0 10 4.484375 10 10v16c0 5.523438 4.476562 10 10 10s10-4.476562 10-10v-16c0-16.542969-13.457031-30-30-30h-175c-8.296875 0-15-6.703125-15-15 0-8.269531 6.730469-15 15-15h130c19.347656 0 35-15.644531 35-35 0-19.300781-15.699219-35-35-35h-90c-8.296875 0-15-6.703125-15-15 0-8.269531 6.730469-15 15-15h75c5.523438 0 10-4.476562 10-10s-4.476562-10-10-10h-75c-19.300781 0-35 15.699219-35 35 0 19.347656 15.644531 35 35 35h90c8.269531 0 15 6.730469 15 15 0 8.296875-6.703125 15-15 15zm0 0"/>
</svg>